<svg xmlns="http://www.w3.org/2000/svg" xmlns:xlink="http://www.w3.org/1999/xlink" width="250" zoomAndPan="magnify" viewBox="0 0 187.5 187.499992" height="250" preserveAspectRatio="xMidYMid meet" version="1.0"><defs><clipPath id="1e6bb18139"><path d="M 51 102 L 134 102 L 134 159.628906 L 51 159.628906 Z M 51 102 " clip-rule="nonzero"/></clipPath><clipPath id="46c99a4472"><path d="M 65 27.230469 L 122 27.230469 L 122 45 L 65 45 Z M 65 27.230469 " clip-rule="nonzero"/></clipPath><clipPath id="40cc8b130b"><path d="M 40.484375 80 L 146.703125 80 L 146.703125 98 L 40.484375 98 Z M 40.484375 80 " clip-rule="nonzero"/></clipPath><clipPath id="30ed72d8bf"><path d="M 131 66 L 146.703125 66 L 146.703125 81 L 131 81 Z M 131 66 " clip-rule="nonzero"/></clipPath><clipPath id="9d2683755c"><path d="M 131 47 L 146.703125 47 L 146.703125 61 L 131 61 Z M 131 47 " clip-rule="nonzero"/></clipPath><clipPath id="b4e73f615f"><path d="M 40.484375 66 L 56 66 L 56 81 L 40.484375 81 Z M 40.484375 66 " clip-rule="nonzero"/></clipPath><clipPath id="59b0c20c06"><path d="M 40.484375 47 L 56 47 L 56 61 L 40.484375 61 Z M 40.484375 47 " clip-rule="nonzero"/></clipPath></defs><g clip-path="url(#1e6bb18139)"><path fill="#f6a230" d="M 91.828125 159.773438 C 91.828125 159.773438 97.167969 147.683594 99.273438 143.816406 C 100.882812 140.859375 104.085938 136.144531 107.476562 133.140625 C 107.476562 133.140625 125.015625 117.527344 131.191406 112.175781 C 132.417969 111.113281 133.265625 109.609375 133.265625 107.863281 C 133.265625 104.8125 130.792969 102.339844 127.742188 102.339844 C 126.140625 102.339844 124.84375 103.175781 123.691406 104.109375 C 115.59375 110.671875 96.355469 126.636719 86.875 126.636719 C 74.910156 126.636719 70.4375 115.59375 69.203125 113.382812 C 67.316406 110.007812 63.527344 102.339844 57.117188 102.339844 C 54.128906 102.339844 51.53125 105.015625 51.53125 108.964844 C 51.53125 116.144531 62.578125 121.761719 62.578125 142.101562 L 62.578125 145.722656 C 62.578125 149.152344 62.925781 152.535156 64.460938 155.601562 L 66.546875 159.773438 Z M 91.828125 159.773438 " fill-opacity="1" fill-rule="nonzero"/></g><path fill="#f6a230" d="M 113.277344 106.796875 C 112.78125 104.257812 110.546875 102.339844 107.863281 102.339844 C 107.007812 102.339844 106.203125 102.535156 105.480469 102.878906 C 100.300781 105.871094 93.933594 112.574219 89.546875 121.734375 C 95.851562 119.859375 105.90625 112.558594 113.277344 106.796875 Z M 113.277344 106.796875 " fill-opacity="1" fill-rule="nonzero"/><path fill="#f6a230" d="M 95.242188 105.652344 C 94.390625 103.703125 92.449219 102.339844 90.1875 102.339844 C 84.421875 102.339844 80.3125 109.832031 77.339844 117.902344 C 79.152344 119.886719 81.460938 121.46875 84.511719 122.011719 L 85.558594 119.828125 C 88.097656 114.523438 91.515625 109.601562 95.238281 105.652344 Z M 95.242188 105.652344 " fill-opacity="1" fill-rule="nonzero"/><path fill="#f6a230" d="M 62.578125 55.949219 C 62.578125 52.289062 65.542969 49.320312 69.207031 49.320312 L 117.804688 49.320312 C 121.464844 49.320312 124.433594 52.289062 124.433594 55.949219 C 124.433594 59.851562 121.542969 62.578125 117.804688 62.578125 C 113.539062 62.578125 110.871094 60.367188 106.757812 60.367188 C 101.164062 60.367188 98.300781 64.785156 93.503906 64.785156 C 88.710938 64.785156 85.84375 60.367188 80.25 60.367188 C 76.140625 60.367188 73.472656 62.578125 69.207031 62.578125 C 65.46875 62.578125 62.578125 59.851562 62.578125 55.949219 Z M 62.578125 55.949219 " fill-opacity="1" fill-rule="nonzero"/><g clip-path="url(#46c99a4472)"><path fill="#f6a230" d="M 121.414062 44.902344 C 116.445312 34.464844 105.832031 27.230469 93.503906 27.230469 C 81.171875 27.230469 70.558594 34.464844 65.59375 44.902344 Z M 121.414062 44.902344 " fill-opacity="1" fill-rule="nonzero"/></g><path fill="#f6a230" d="M 117.800781 66.996094 C 113.539062 66.996094 110.871094 64.785156 106.757812 64.785156 C 101.164062 64.785156 98.296875 69.203125 93.503906 69.203125 C 88.707031 69.203125 85.839844 64.785156 80.25 64.785156 C 76.136719 64.785156 73.46875 66.996094 69.203125 66.996094 C 67.152344 66.996094 65.292969 66.449219 63.679688 65.554688 C 62.988281 66.601562 62.578125 67.855469 62.578125 69.207031 C 62.578125 72.867188 65.546875 75.832031 69.207031 75.832031 L 117.804688 75.832031 C 121.464844 75.832031 124.433594 72.867188 124.433594 69.207031 C 124.433594 67.855469 124.023438 66.601562 123.332031 65.554688 C 121.71875 66.449219 119.859375 66.996094 117.808594 66.996094 Z M 117.800781 66.996094 " fill-opacity="1" fill-rule="nonzero"/><g clip-path="url(#40cc8b130b)"><path fill="#f6a230" d="M 142.101562 89.085938 L 123.300781 89.085938 C 124 88.160156 124.429688 87.019531 124.429688 85.773438 C 124.429688 82.722656 121.957031 80.25 118.90625 80.25 L 68.101562 80.25 C 65.050781 80.25 62.578125 82.722656 62.578125 85.773438 C 62.578125 87.023438 63.007812 88.160156 63.707031 89.085938 L 44.90625 89.085938 C 42.464844 89.085938 40.488281 91.0625 40.488281 93.503906 C 40.488281 95.941406 42.464844 97.921875 44.90625 97.921875 L 142.105469 97.921875 C 144.542969 97.921875 146.523438 95.941406 146.523438 93.503906 C 146.523438 91.0625 144.542969 89.085938 142.105469 89.085938 Z M 142.101562 89.085938 " fill-opacity="1" fill-rule="nonzero"/></g><g clip-path="url(#30ed72d8bf)"><path fill="#f6a230" d="M 137.945312 67.75 C 137.242188 67.273438 136.390625 66.996094 135.476562 66.996094 C 133.035156 66.996094 131.058594 68.972656 131.058594 71.414062 C 131.058594 72.9375 131.851562 74.300781 133.03125 75.089844 L 139.65625 79.507812 C 140.363281 79.984375 141.191406 80.25 142.105469 80.25 C 144.542969 80.25 146.523438 78.269531 146.523438 75.832031 C 146.523438 74.304688 145.726562 72.945312 144.550781 72.152344 Z M 137.945312 67.75 " fill-opacity="1" fill-rule="nonzero"/></g><g clip-path="url(#9d2683755c)"><path fill="#f6a230" d="M 137.945312 59.613281 C 137.242188 60.089844 136.390625 60.367188 135.476562 60.367188 C 133.035156 60.367188 131.058594 58.390625 131.058594 55.949219 C 131.058594 54.425781 131.851562 53.0625 133.03125 52.269531 L 139.65625 47.855469 C 140.363281 47.378906 141.191406 47.113281 142.105469 47.113281 C 144.542969 47.113281 146.523438 49.09375 146.523438 51.53125 C 146.523438 53.058594 145.726562 54.417969 144.550781 55.210938 Z M 137.945312 59.613281 " fill-opacity="1" fill-rule="nonzero"/></g><g clip-path="url(#b4e73f615f)"><path fill="#f6a230" d="M 49.0625 67.75 C 49.765625 67.273438 50.617188 66.996094 51.53125 66.996094 C 53.972656 66.996094 55.949219 68.972656 55.949219 71.414062 C 55.949219 72.9375 55.15625 74.300781 53.976562 75.089844 L 47.351562 79.507812 C 46.644531 79.984375 45.816406 80.25 44.902344 80.25 C 42.464844 80.25 40.484375 78.269531 40.484375 75.832031 C 40.484375 74.304688 41.28125 72.945312 42.457031 72.152344 Z M 49.0625 67.75 " fill-opacity="1" fill-rule="nonzero"/></g><g clip-path="url(#59b0c20c06)"><path fill="#f6a230" d="M 49.0625 59.613281 C 49.765625 60.089844 50.617188 60.367188 51.53125 60.367188 C 53.972656 60.367188 55.949219 58.390625 55.949219 55.949219 C 55.949219 54.425781 55.15625 53.0625 53.976562 52.269531 L 47.351562 47.855469 C 46.644531 47.378906 45.816406 47.113281 44.902344 47.113281 C 42.464844 47.113281 40.484375 49.09375 40.484375 51.53125 C 40.484375 53.058594 41.28125 54.417969 42.457031 55.210938 Z M 49.0625 59.613281 " fill-opacity="1" fill-rule="nonzero"/></g></svg>