<svg xmlns="http://www.w3.org/2000/svg" xmlns:xlink="http://www.w3.org/1999/xlink" width="250" zoomAndPan="magnify" viewBox="0 0 187.5 187.499992" height="250" preserveAspectRatio="xMidYMid meet" version="1.0"><defs><clipPath id="7155fc3830"><path d="M 0 27.230469 L 187 27.230469 L 187 159.628906 L 0 159.628906 Z M 0 27.230469 " clip-rule="nonzero"/></clipPath></defs><g clip-path="url(#7155fc3830)"><path fill="#ffeebe" d="M 183.992188 90.703125 C 183.921875 90.746094 179.140625 94.363281 173.816406 98.386719 C 173.972656 99.367188 173.972656 100.320312 173.816406 101.253906 C 173.179688 105.050781 170.671875 108.574219 166.757812 111.214844 C 163.480469 113.398438 159.65625 114.671875 156.285156 114.671875 C 153.121094 114.671875 150.414062 113.511719 148.660156 111.417969 C 148.636719 111.394531 148.613281 111.371094 148.613281 111.351562 C 147.839844 112.351562 147.132812 113.351562 146.496094 114.261719 C 145.40625 115.851562 143.628906 116.71875 141.785156 116.71875 C 140.988281 116.71875 140.191406 116.558594 139.441406 116.214844 C 139.257812 116.125 137.597656 115.375 135.820312 114.171875 C 133.519531 112.625 131.90625 110.894531 130.949219 109.03125 C 129.902344 110.121094 128.898438 111.101562 128.011719 111.941406 C 134.410156 112.054688 139.578125 117.285156 139.578125 123.699219 C 139.578125 126.835938 138.347656 129.792969 136.117188 132.023438 C 135.367188 132.773438 134.523438 133.410156 133.636719 133.933594 C 133.476562 148.121094 121.867188 159.628906 107.613281 159.628906 L 65.273438 159.628906 C 58.304688 159.628906 51.773438 156.921875 46.855469 152.011719 C 42.007812 147.167969 39.296875 140.753906 39.230469 133.933594 C 35.679688 131.90625 33.289062 128.085938 33.289062 123.722656 C 33.289062 120.582031 34.515625 117.625 36.746094 115.398438 C 38.910156 113.238281 41.757812 112.03125 44.804688 111.964844 C 44.648438 111.804688 44.488281 111.625 44.351562 111.441406 C 44.03125 111.054688 43.757812 110.644531 43.484375 110.214844 C 40.664062 112.667969 37.113281 114.761719 33.058594 116.351562 C 28.097656 118.308594 22.703125 119.402344 17.875 119.402344 C 14.121094 119.402344 10.820312 118.765625 8.109375 117.492188 C 4.535156 115.832031 2.078125 113.148438 0.984375 109.714844 C 0.0507812 106.78125 0.371094 103.640625 1.917969 100.890625 C 3.328125 98.367188 5.71875 96.273438 8.585938 94.953125 C 8.953125 94.066406 9.316406 93.15625 9.703125 92.226562 C 10.566406 90.132812 11.433594 87.996094 12.277344 85.925781 C 11.183594 85.289062 10.203125 84.46875 9.40625 83.46875 C 7.3125 80.878906 6.605469 77.488281 7.382812 73.894531 C 8.519531 68.6875 11.570312 64.503906 16.191406 61.773438 C 19.878906 59.613281 24.453125 58.476562 29.441406 58.476562 C 33.039062 58.476562 36.519531 59.070312 39.617188 60.117188 C 40.800781 51.953125 44.554688 44.445312 50.496094 38.511719 C 57.78125 31.234375 67.457031 27.230469 77.722656 27.230469 L 95.070312 27.230469 C 105.359375 27.230469 115.035156 31.234375 122.320312 38.511719 C 129.605469 45.789062 133.613281 55.453125 133.613281 65.730469 C 133.613281 68.894531 131.039062 71.441406 127.898438 71.441406 L 94.367188 71.441406 C 95.390625 73.988281 95.367188 77.035156 94.34375 80.492188 C 94.296875 80.648438 94.230469 80.832031 94.183594 80.992188 C 94.640625 81.402344 95.070312 81.878906 95.503906 82.425781 C 96.210938 81.535156 96.960938 80.71875 97.710938 79.992188 L 98.078125 79.582031 C 98.578125 79.011719 99.167969 78.558594 99.828125 78.21875 C 102.058594 76.648438 104.382812 75.828125 106.726562 75.828125 C 107 75.828125 107.273438 75.828125 107.546875 75.851562 C 107.570312 75.851562 107.570312 75.851562 107.59375 75.851562 C 108.183594 75.898438 108.753906 76.011719 109.320312 76.191406 C 109.6875 76.125 110.074219 76.078125 110.4375 76.078125 C 110.644531 76.078125 110.847656 76.078125 111.074219 76.125 C 111.28125 76.148438 113.03125 76.351562 115.011719 76.785156 C 117.085938 77.238281 119.542969 77.96875 121.34375 79.535156 C 123.070312 78.261719 124.9375 77.285156 126.875 76.625 C 128.125 76.191406 129.378906 75.988281 130.5625 75.988281 C 131.792969 75.988281 132.953125 76.214844 134.023438 76.648438 C 134.179688 75.101562 134.570312 73.625 135.183594 72.214844 C 136.117188 70.144531 137.480469 68.460938 139.097656 67.300781 C 140.714844 66.140625 142.605469 65.503906 144.585938 65.503906 C 144.996094 65.503906 145.382812 65.527344 145.792969 65.597656 C 145.8125 65.597656 145.835938 65.597656 145.835938 65.597656 C 149.367188 66.117188 152.144531 68.164062 153.441406 71.257812 C 154.535156 73.851562 154.535156 76.945312 153.484375 80.492188 C 153.441406 80.648438 153.371094 80.832031 153.328125 80.992188 C 153.691406 81.332031 154.054688 81.71875 154.398438 82.128906 C 154.578125 81.808594 154.785156 81.515625 154.988281 81.21875 C 154.988281 81.21875 155.011719 81.195312 155.011719 81.195312 C 157.378906 77.898438 161.042969 75.988281 165.097656 75.988281 C 167.714844 75.988281 170.265625 76.808594 172.289062 78.308594 C 173.199219 78.988281 173.996094 79.785156 174.632812 80.695312 C 175.589844 80.035156 176.136719 79.648438 176.160156 79.625 C 177.117188 78.96875 178.253906 78.605469 179.414062 78.605469 C 179.824219 78.605469 180.210938 78.648438 180.621094 78.738281 C 182.167969 79.082031 183.511719 80.035156 184.308594 81.378906 L 185.402344 83.21875 C 186.949219 85.722656 186.3125 88.949219 183.992188 90.703125 Z M 183.992188 90.703125 " fill-opacity="1" fill-rule="nonzero"/></g><path fill="#f6a230" d="M 127.898438 65.710938 L 44.964844 65.710938 C 44.964844 47.609375 59.648438 32.941406 77.769531 32.941406 L 95.117188 32.941406 C 113.214844 32.941406 127.898438 47.609375 127.898438 65.710938 Z M 127.898438 65.710938 " fill-opacity="1" fill-rule="nonzero"/><path fill="#f6a230" d="M 127.898438 133.613281 C 127.898438 144.824219 118.792969 153.898438 107.59375 153.898438 L 65.296875 153.898438 C 59.695312 153.898438 54.59375 151.625 50.929688 147.964844 C 47.242188 144.300781 44.988281 139.207031 44.988281 133.613281 L 83.644531 133.613281 C 85.464844 136.820312 88.789062 139.957031 91.15625 139.117188 C 91.15625 139.117188 96.324219 141.003906 101.902344 133.613281 Z M 127.898438 133.613281 " fill-opacity="1" fill-rule="nonzero"/><path fill="#e21013" d="M 45.101562 117.648438 L 89.949219 117.648438 C 87.398438 120.675781 82.347656 126.972656 82.347656 129.703125 L 82.347656 129.769531 L 45.101562 129.769531 C 41.757812 129.769531 39.046875 127.0625 39.046875 123.722656 C 39.046875 122.039062 39.730469 120.539062 40.824219 119.445312 C 41.894531 118.332031 43.417969 117.648438 45.101562 117.648438 Z M 45.101562 117.648438 " fill-opacity="1" fill-rule="nonzero"/><path fill="#e21013" d="M 133.839844 123.699219 C 133.839844 125.382812 133.15625 126.882812 132.0625 127.972656 C 130.972656 129.066406 129.445312 129.746094 127.785156 129.746094 L 104.40625 129.746094 C 107.386719 124.835938 109.527344 120.058594 110.550781 117.625 L 127.785156 117.625 C 131.132812 117.648438 133.839844 120.355469 133.839844 123.699219 Z M 133.839844 123.699219 " fill-opacity="1" fill-rule="nonzero"/><path fill="#50110a" d="M 45.761719 74.917969 C 44.238281 80.71875 33.605469 85.242188 33.605469 85.242188 C 33.605469 85.242188 43.691406 85.0625 45.035156 94.089844 C 47.46875 110.941406 10.386719 120.402344 6.46875 107.960938 C 5.195312 103.980469 8.859375 100.457031 12.957031 99.480469 C 17.421875 88.496094 23.589844 74.375 23.15625 70.347656 C 28.847656 70.53125 28.78125 73.351562 28.414062 75.417969 C 27.984375 77.558594 21.519531 90.566406 18.582031 100.140625 C 19.195312 100.570312 19.742188 101.003906 20.21875 101.59375 C 21.382812 103.230469 18.878906 104.460938 18.878906 104.460938 C 18.808594 104.164062 18.398438 103.664062 17.785156 103.230469 C 17.351562 105.074219 17.101562 106.644531 17.171875 107.9375 C 25.480469 107.074219 38.136719 101.820312 39.367188 93.523438 C 40.277344 87.789062 29.167969 86.859375 23.15625 91.132812 C 23.15625 91.132812 22.792969 84.835938 27.253906 82.945312 C 31.714844 80.992188 42.164062 75.921875 43.03125 72.371094 C 43.894531 68.894531 28.917969 65.847656 22.609375 70.667969 C 17.464844 74.511719 17.535156 78.605469 19.675781 80.558594 C 17.832031 82.945312 11.730469 80.992188 13.003906 75.054688 C 16.78125 57.703125 48.699219 63.753906 45.761719 74.917969 Z M 16.417969 108.007812 C 14.644531 107.644531 10.726562 106.414062 11.660156 102.6875 C 11.183594 103.050781 10.683594 103.550781 10.316406 104.210938 C 8.722656 107.164062 11.773438 108.324219 16.417969 108.007812 Z M 16.417969 108.007812 " fill-opacity="1" fill-rule="nonzero"/><path fill="#50110a" d="M 83.097656 84.3125 L 85.054688 85.652344 L 67.207031 109.394531 C 67.207031 109.394531 59.375 108.53125 61.105469 103.480469 C 61.902344 101.230469 64.109375 96.589844 65.863281 91.15625 C 61.46875 100.183594 59.808594 103.367188 56.324219 107.097656 C 51.796875 111.917969 46.492188 108.371094 47.835938 102.164062 C 48.699219 98.386719 54.867188 84.8125 54.730469 80.605469 C 60.355469 80.421875 61.515625 82.925781 61.152344 84.992188 C 60.355469 89.449219 55.347656 97.5 54.300781 101.59375 C 54.1875 102.070312 53.320312 108.871094 67.070312 84.378906 C 72.695312 84.199219 74.035156 87.199219 73.308594 89.269531 C 72.078125 92.929688 69.9375 96.226562 67.753906 104.484375 Z M 83.097656 84.3125 " fill-opacity="1" fill-rule="nonzero"/><path fill="#50110a" d="M 102.355469 83.355469 L 104.246094 85.128906 C 104.246094 85.128906 89.628906 100.890625 82.597656 111.007812 C 82.597656 111.007812 74.035156 107.164062 77.222656 103.324219 C 89.152344 89.085938 87.058594 87.996094 84.507812 85.925781 C 77.109375 79.832031 81.390625 70.667969 85.851562 71.28125 C 92.089844 72.191406 88.539062 80.878906 86.761719 83.3125 C 88.71875 84.21875 90.609375 84.652344 91.703125 87.335938 C 93.84375 92.339844 84.988281 103.140625 84.988281 103.140625 Z M 84.871094 82.058594 C 87.921875 77.671875 87.492188 73.214844 85.125 73.691406 C 83.894531 73.941406 81.277344 78.398438 84.257812 81.515625 C 84.441406 81.695312 84.621094 81.878906 84.871094 82.058594 Z M 84.871094 82.058594 " fill-opacity="1" fill-rule="nonzero"/><path fill="#50110a" d="M 128.398438 86.039062 C 128.398438 86.039062 120.089844 94.660156 112.078125 103.253906 C 105.839844 121.265625 99.921875 132.5 95.320312 135 C 91.589844 137.023438 85.714844 133.410156 87.125 127.929688 C 87.558594 126.472656 94.410156 118.648438 102.21875 110.167969 C 103.746094 106.324219 105.222656 102.34375 106.429688 98.683594 C 104.835938 101.183594 102.402344 104.777344 98.78125 109.054688 C 86.921875 108.324219 98.234375 80.855469 107.023438 81.582031 C 109.050781 81.765625 109.847656 83.789062 110.074219 85.789062 C 110.4375 83.832031 110.550781 82.492188 110.371094 81.808594 C 110.371094 81.808594 118.679688 82.71875 117.949219 84.992188 C 116.539062 89.519531 115.195312 93.65625 113.921875 97.570312 C 120.410156 90.679688 126.625 84.199219 126.625 84.199219 Z M 99.054688 117.605469 C 92.636719 124.996094 88.171875 130.726562 90.199219 130.496094 C 92.453125 130.179688 95.753906 124.746094 99.054688 117.605469 Z M 107.683594 89.746094 C 107.683594 89.746094 99.007812 101.527344 99.988281 103.664062 C 104.382812 98.113281 108.34375 92.566406 107.683594 89.746094 Z M 107.683594 89.746094 " fill-opacity="1" fill-rule="nonzero"/><path fill="#50110a" d="M 142.445312 84.3125 L 144.335938 85.765625 C 144.335938 85.765625 128.992188 103.480469 122.890625 108.847656 C 119.953125 109.941406 116.21875 107.621094 115.742188 102.503906 C 115.195312 96.453125 120.023438 84.972656 128.695312 82.058594 C 135.730469 79.671875 135.660156 90.542969 131.5625 93.90625 C 128.558594 96.339844 123.070312 97.207031 123.070312 97.207031 C 120.5 100.753906 121.730469 106.984375 122.890625 105.824219 C 127.054688 101.914062 142.445312 84.3125 142.445312 84.3125 Z M 124.414062 94.589844 C 126.488281 93.316406 127.648438 92.816406 128.695312 91.589844 C 129.492188 90.609375 129.058594 89.085938 128.261719 89.746094 C 127.851562 90.132812 124.414062 94.589844 124.414062 94.589844 Z M 124.414062 94.589844 " fill-opacity="1" fill-rule="nonzero"/><path fill="#50110a" d="M 161.523438 83.355469 L 163.410156 85.128906 C 163.410156 85.128906 148.796875 100.890625 141.785156 111.007812 C 141.785156 111.007812 133.226562 107.164062 136.414062 103.324219 C 148.339844 89.085938 146.246094 87.996094 143.695312 85.925781 C 136.296875 79.832031 140.578125 70.667969 145.039062 71.28125 C 151.277344 72.191406 147.726562 80.878906 145.949219 83.3125 C 147.910156 84.21875 149.796875 84.652344 150.890625 87.335938 C 153.03125 92.339844 144.175781 103.140625 144.175781 103.140625 Z M 144.039062 82.058594 C 147.089844 77.671875 146.65625 73.214844 144.289062 73.691406 C 143.058594 73.941406 140.441406 78.398438 143.425781 81.515625 C 143.605469 81.695312 143.789062 81.878906 144.039062 82.058594 Z M 144.039062 82.058594 " fill-opacity="1" fill-rule="nonzero"/><path fill="#50110a" d="M 180.53125 86.152344 C 180.53125 86.152344 173.496094 91.476562 166.894531 96.476562 C 167.804688 97.820312 168.351562 99.230469 168.167969 100.320312 C 166.894531 108.007812 150.9375 112.964844 152.460938 104.597656 C 152.574219 103.867188 157.289062 100.140625 162.796875 96.160156 C 162.683594 95.976562 162.5 95.796875 162.320312 95.546875 C 158.539062 91.632812 157.058594 88.222656 159.699219 84.492188 C 163.070312 79.785156 170.285156 81.445312 170.832031 86.128906 C 171.195312 89.496094 168.261719 87.90625 168.261719 87.90625 C 168.261719 87.289062 168.078125 85.949219 167.097656 85.699219 C 164.050781 84.789062 162.089844 90.453125 164.480469 93.203125 C 164.777344 93.5 165.097656 93.886719 165.347656 94.25 C 172.3125 89.246094 179.460938 84.289062 179.460938 84.289062 Z M 163.117188 99.273438 C 159.132812 102.320312 155.96875 104.824219 155.535156 105.1875 C 154.738281 106.007812 161.636719 102.9375 163.117188 99.273438 Z M 163.117188 99.273438 " fill-opacity="1" fill-rule="nonzero"/><path fill="#ffffff" d="M 72.578125 40.625 C 72.578125 40.890625 72.53125 41.140625 72.429688 41.382812 C 72.328125 41.625 72.183594 41.839844 72 42.023438 C 71.8125 42.210938 71.601562 42.355469 71.355469 42.453125 C 71.113281 42.554688 70.863281 42.605469 70.597656 42.605469 C 70.335938 42.605469 70.082031 42.554688 69.839844 42.453125 C 69.597656 42.355469 69.382812 42.210938 69.199219 42.023438 C 69.011719 41.839844 68.871094 41.625 68.769531 41.382812 C 68.667969 41.140625 68.617188 40.890625 68.617188 40.625 C 68.617188 40.363281 68.667969 40.113281 68.769531 39.871094 C 68.871094 39.625 69.011719 39.414062 69.199219 39.226562 C 69.382812 39.042969 69.597656 38.898438 69.839844 38.796875 C 70.082031 38.699219 70.335938 38.648438 70.597656 38.648438 C 70.863281 38.648438 71.113281 38.699219 71.355469 38.796875 C 71.601562 38.898438 71.8125 39.042969 72 39.226562 C 72.183594 39.414062 72.328125 39.625 72.429688 39.871094 C 72.53125 40.113281 72.578125 40.363281 72.578125 40.625 Z M 72.578125 40.625 " fill-opacity="1" fill-rule="nonzero"/><path fill="#ffffff" d="M 79.863281 44.582031 C 79.863281 44.84375 79.8125 45.097656 79.714844 45.339844 C 79.613281 45.582031 79.46875 45.796875 79.285156 45.980469 C 79.097656 46.167969 78.882812 46.3125 78.640625 46.410156 C 78.398438 46.511719 78.148438 46.5625 77.882812 46.5625 C 77.621094 46.5625 77.367188 46.511719 77.125 46.410156 C 76.882812 46.3125 76.667969 46.167969 76.484375 45.980469 C 76.296875 45.796875 76.15625 45.582031 76.054688 45.339844 C 75.953125 45.097656 75.902344 44.84375 75.902344 44.582031 C 75.902344 44.320312 75.953125 44.070312 76.054688 43.824219 C 76.15625 43.582031 76.296875 43.371094 76.484375 43.183594 C 76.667969 43 76.882812 42.855469 77.125 42.753906 C 77.367188 42.65625 77.621094 42.605469 77.882812 42.605469 C 78.148438 42.605469 78.398438 42.65625 78.640625 42.753906 C 78.882812 42.855469 79.097656 43 79.285156 43.183594 C 79.46875 43.371094 79.613281 43.582031 79.714844 43.824219 C 79.8125 44.070312 79.863281 44.320312 79.863281 44.582031 Z M 79.863281 44.582031 " fill-opacity="1" fill-rule="nonzero"/><path fill="#ffffff" d="M 84.234375 38.671875 C 84.234375 38.933594 84.183594 39.183594 84.085938 39.429688 C 83.984375 39.671875 83.839844 39.882812 83.65625 40.070312 C 83.46875 40.253906 83.253906 40.398438 83.011719 40.5 C 82.769531 40.597656 82.515625 40.648438 82.253906 40.648438 C 81.992188 40.648438 81.738281 40.597656 81.496094 40.5 C 81.253906 40.398438 81.039062 40.253906 80.855469 40.070312 C 80.667969 39.882812 80.527344 39.671875 80.425781 39.429688 C 80.324219 39.183594 80.273438 38.933594 80.273438 38.671875 C 80.273438 38.410156 80.324219 38.15625 80.425781 37.914062 C 80.527344 37.671875 80.667969 37.457031 80.855469 37.273438 C 81.039062 37.085938 81.253906 36.941406 81.496094 36.84375 C 81.738281 36.742188 81.992188 36.691406 82.253906 36.691406 C 82.515625 36.691406 82.769531 36.742188 83.011719 36.84375 C 83.253906 36.941406 83.46875 37.085938 83.65625 37.273438 C 83.839844 37.457031 83.984375 37.671875 84.085938 37.914062 C 84.183594 38.15625 84.234375 38.410156 84.234375 38.671875 Z M 84.234375 38.671875 " fill-opacity="1" fill-rule="nonzero"/><path fill="#ffffff" d="M 92.339844 42.605469 C 92.339844 42.867188 92.289062 43.121094 92.1875 43.363281 C 92.089844 43.605469 91.945312 43.816406 91.757812 44.003906 C 91.574219 44.1875 91.359375 44.332031 91.117188 44.433594 C 90.875 44.53125 90.621094 44.582031 90.359375 44.582031 C 90.097656 44.582031 89.84375 44.53125 89.601562 44.433594 C 89.359375 44.332031 89.144531 44.1875 88.957031 44.003906 C 88.773438 43.816406 88.628906 43.605469 88.527344 43.363281 C 88.429688 43.121094 88.378906 42.867188 88.378906 42.605469 C 88.378906 42.34375 88.429688 42.089844 88.527344 41.847656 C 88.628906 41.605469 88.773438 41.390625 88.957031 41.207031 C 89.144531 41.019531 89.359375 40.878906 89.601562 40.777344 C 89.84375 40.675781 90.097656 40.625 90.359375 40.625 C 90.621094 40.625 90.875 40.675781 91.117188 40.777344 C 91.359375 40.878906 91.574219 41.019531 91.757812 41.207031 C 91.945312 41.390625 92.089844 41.605469 92.1875 41.847656 C 92.289062 42.089844 92.339844 42.34375 92.339844 42.605469 Z M 92.339844 42.605469 " fill-opacity="1" fill-rule="nonzero"/><path fill="#ffffff" d="M 98.144531 38.671875 C 98.144531 38.933594 98.09375 39.183594 97.992188 39.429688 C 97.894531 39.671875 97.75 39.882812 97.566406 40.070312 C 97.378906 40.253906 97.164062 40.398438 96.921875 40.5 C 96.679688 40.597656 96.425781 40.648438 96.164062 40.648438 C 95.902344 40.648438 95.648438 40.597656 95.40625 40.5 C 95.164062 40.398438 94.949219 40.253906 94.761719 40.070312 C 94.578125 39.882812 94.433594 39.671875 94.335938 39.429688 C 94.234375 39.183594 94.183594 38.933594 94.183594 38.671875 C 94.183594 38.410156 94.234375 38.15625 94.335938 37.914062 C 94.433594 37.671875 94.578125 37.457031 94.765625 37.273438 C 94.949219 37.085938 95.164062 36.941406 95.40625 36.84375 C 95.648438 36.742188 95.902344 36.691406 96.164062 36.691406 C 96.425781 36.691406 96.679688 36.742188 96.921875 36.84375 C 97.164062 36.941406 97.378906 37.085938 97.566406 37.273438 C 97.75 37.457031 97.894531 37.671875 97.992188 37.914062 C 98.09375 38.15625 98.144531 38.410156 98.144531 38.671875 Z M 98.144531 38.671875 " fill-opacity="1" fill-rule="nonzero"/><path fill="#ffffff" d="M 104.246094 44.582031 C 104.246094 44.84375 104.195312 45.097656 104.09375 45.339844 C 103.996094 45.582031 103.851562 45.796875 103.664062 45.980469 C 103.480469 46.167969 103.265625 46.3125 103.023438 46.410156 C 102.78125 46.511719 102.527344 46.5625 102.265625 46.5625 C 102.003906 46.5625 101.75 46.511719 101.507812 46.410156 C 101.265625 46.3125 101.050781 46.167969 100.863281 45.980469 C 100.679688 45.796875 100.535156 45.582031 100.433594 45.339844 C 100.335938 45.097656 100.285156 44.84375 100.285156 44.582031 C 100.285156 44.320312 100.335938 44.070312 100.433594 43.824219 C 100.535156 43.582031 100.679688 43.371094 100.863281 43.183594 C 101.050781 43 101.265625 42.855469 101.507812 42.753906 C 101.75 42.65625 102.003906 42.605469 102.265625 42.605469 C 102.527344 42.605469 102.78125 42.65625 103.023438 42.753906 C 103.265625 42.855469 103.480469 43 103.664062 43.183594 C 103.851562 43.371094 103.996094 43.582031 104.09375 43.824219 C 104.195312 44.070312 104.246094 44.320312 104.246094 44.582031 Z M 104.246094 44.582031 " fill-opacity="1" fill-rule="nonzero"/></svg>